<?xml version="1.0" encoding="UTF-8"?>
<svg width="420px" height="111px" viewBox="0 0 420 111" version="1.1" xmlns="http://www.w3.org/2000/svg" xmlns:xlink="http://www.w3.org/1999/xlink">
    <title>Horizontal-Logo</title>
    <g id="Horizontal-Logo" stroke="none" stroke-width="1" fill="none" fill-rule="evenodd">
        <g id="Logo">
            <text id="Pillow" font-family="PlusJakartaSans-Bold, Plus Jakarta Sans" font-size="88" font-weight="bold" fill="#14192B">
                <tspan x="156" y="91">Pillow</tspan>
            </text>
            <g id="Group-2" transform="translate(0.000000, 4.000000)" fill-rule="nonzero">
                <path d="M67.008,8.67044303 C67.008,0.604043032 77.072,-3.07515697 82.272,3.08964303 L108.788,34.507643 C114.056,40.752443 116.948,48.660043 116.948,56.832043 L116.948,93.788043 C116.948,101.880043 106.832,105.544043 101.648,99.332043 L73.316,65.364043 C69.24,60.476043 67.008,54.311643 67.008,47.945643 L67.008,8.67044303 Z" id="Path" fill="#82A7FF"></path>
                <path d="M33.216,8.67044303 C33.216,0.604043032 43.28,-3.07515697 48.48,3.08964303 L74.996,34.507643 C80.264,40.752443 83.156,48.660043 83.156,56.832043 L83.156,93.788043 C83.156,101.880043 73.04,105.544043 67.856,99.332043 L39.524,65.364043 C35.448,60.476043 33.216,54.311643 33.216,47.945643 L33.216,8.67044303 Z" id="Path" fill="#3A74FF"></path>
                <path d="M0,8.67044303 C0,0.604043032 10.064,-3.07515697 15.264,3.08964303 L41.78,34.507643 C47.048,40.752443 49.94,48.660043 49.94,56.832043 L49.94,93.788043 C49.94,101.880043 39.824,105.544043 34.64,99.332043 L6.312,65.364043 C2.232,60.476043 0,54.311643 0,47.945643 L0,8.67044303 Z" id="Path" fill="#0144E4"></path>
            </g>
        </g>
    </g>
</svg>