<?xml version="1.0" encoding="UTF-8"?>
<svg width="399px" height="111px" viewBox="0 0 399 111" version="1.1" xmlns="http://www.w3.org/2000/svg" xmlns:xlink="http://www.w3.org/1999/xlink">
    <title>Horizontal-Logo</title>
    <defs>
        <rect id="path-1" x="0" y="0" width="111" height="111" rx="20.1612903"></rect>
        <polygon id="path-3" points="0 0 111.174957 0 111.174957 111.02815 0 111.02815"></polygon>
        <polygon id="path-5" points="0 0 69.6397942 0 69.6397942 80.4767802 0 80.4767802"></polygon>
        <polygon id="path-7" points="0 76.5375471 64.210843 -1.12952477e-13 126.548562 52.1608761 62.3377195 128.698423"></polygon>
        <polygon id="path-9" points="0 76.5375471 64.210843 -1.12952477e-13 126.548562 52.1608761 62.3377195 128.698423"></polygon>
        <polygon id="path-11" points="0 0 70.6346484 0 70.6346484 80.4767802 0 80.4767802"></polygon>
        <polygon id="path-13" points="0 76.5375471 64.210843 -1.12952477e-13 126.548562 52.1608761 62.3377195 128.698423"></polygon>
        <polygon id="path-15" points="0 76.5375471 64.210843 -1.12952477e-13 126.548562 52.1608761 62.3377195 128.698423"></polygon>
        <polygon id="path-17" points="0 0 69.6397942 0 69.6397942 79.4832397 0 79.4832397"></polygon>
        <polygon id="path-19" points="0 76.5375471 64.210843 -1.12952477e-13 126.548562 52.1608761 62.3377195 128.698423"></polygon>
        <polygon id="path-21" points="0 76.5375471 64.210843 -1.12952477e-13 126.548562 52.1608761 62.3377195 128.698423"></polygon>
    </defs>
    <g id="Horizontal-Logo" stroke="none" stroke-width="1" fill="none" fill-rule="evenodd">
        <g id="Logo" transform="translate(135.000000, 0.000000)" fill="#14192B" font-family="PlusJakartaSans-Bold, Plus Jakarta Sans" font-size="88" font-weight="bold">
            <text id="Pillow">
                <tspan x="0" y="91">Pillow</tspan>
            </text>
        </g>
        <g id="Pillow-Logo">
            <mask id="mask-2" fill="white">
                <use xlink:href="#path-1"></use>
            </mask>
            <g id="Mask"></g>
            <g mask="url(#mask-2)" id="Clipped">
                <g transform="translate(-34.000000, 0.000000)">
                    <g transform="translate(33.825043, 0.000000)">
                        <mask id="mask-4" fill="white">
                            <use xlink:href="#path-3"></use>
                        </mask>
                        <g id="Path"></g>
                        <path d="M96.6485318,110.954411 L14.5691732,110.954411 C13.6170669,110.95053 12.6766193,110.853505 11.7439435,110.667216 C10.8112677,110.480927 9.90579413,110.205375 9.02752491,109.84056 C8.14925568,109.475743 7.31761925,109.029426 6.5248448,108.497727 C5.73595626,107.969909 5.00536021,107.372232 4.32917074,106.696935 C3.65686617,106.025519 3.05839969,105.295888 2.5298834,104.508041 C2.0013671,103.716313 1.55445969,102.881894 1.18916216,102.004785 C0.823863636,101.127675 0.547946792,100.223398 0.357525729,99.2919534 C0.170990566,98.3605091 0.0777229846,97.4213034 0.073837084,96.4704543 L0.073837084,14.4994816 C0.0777229846,13.5525133 0.170990566,12.6133076 0.36141163,11.6818634 C0.547946792,10.7542999 0.823863636,9.85002307 1.18916216,8.97679437 C1.55445969,8.09968391 2.005253,7.26914664 2.5337693,6.48129983 C3.06228559,5.69345302 3.66463897,4.96382171 4.33694254,4.29628669 C5.0092471,3.6248709 5.73984216,3.0271937 6.5326176,2.50325608 C7.32150515,1.97543769 8.15702748,1.53300219 9.03529671,1.1720678 C9.90968103,0.807251653 10.8151536,0.535580921 11.7478294,0.353172847 C12.6805052,0.166884004 13.6209538,0.0776203513 14.5691732,0.0776203513 L96.6485318,0.0776203513 C97.5967522,0.0776203513 98.5371998,0.170764773 99.4659897,0.357053616 C100.39478,0.543342459 101.296366,0.818894954 102.174636,1.17982934 C103.049019,1.54464549 103.880655,1.98708099 104.669544,2.51489938 C105.458432,3.038837 106.185142,3.64039497 106.857446,4.30792999 C107.525863,4.97546501 108.128216,5.70509632 108.652847,6.49294313 C109.181363,7.28078895 109.62827,8.11132721 109.989682,8.98455591 C110.354979,9.85778461 110.62701,10.7581807 110.813545,11.6896249 C111.000081,12.6171883 111.097234,13.5525133 111.097234,14.4994816 L111.097234,96.4704543 C111.097234,97.4213034 111.003967,98.3605091 110.817431,99.2880726 C110.630896,100.219517 110.354979,101.123794 109.993568,101.997023 C109.632156,102.874133 109.185249,103.708552 108.660619,104.496398 C108.132103,105.284244 107.533636,106.013876 106.865218,106.689173 C106.192914,107.360589 105.462318,107.958266 104.677316,108.489965 C103.888427,109.017784 103.056792,109.4641 102.178521,109.828916 C101.304138,110.197613 100.398666,110.473166 99.4698756,110.663335 C98.5410857,110.849624 97.6006381,110.946649 96.6485318,110.954411 Z" id="Path" fill="#0144E4" fill-rule="nonzero" mask="url(#mask-4)"></path>
                    </g>
                    <g transform="translate(0.000000, 25.781600)">
                        <mask id="mask-6" fill="white">
                            <use xlink:href="#path-5"></use>
                        </mask>
                        <g id="Path"></g>
                        <g mask="url(#mask-6)">
                            <g transform="translate(-4.266991, -4.490337)">
                                <mask id="mask-8" fill="white">
                                    <use xlink:href="#path-7"></use>
                                </mask>
                                <g id="Path" stroke="none" fill="none"></g>
                                <g id="Clipped" stroke="none" stroke-width="1" fill="none" fill-rule="evenodd" mask="url(#mask-8)">
                                    <g transform="translate(0.000000, -0.000000)">
                                        <mask id="mask-10" fill="white">
                                            <use xlink:href="#path-9"></use>
                                        </mask>
                                        <g id="Path" stroke="none" fill="none"></g>
                                        <path d="M71.613957,20.4025091 L20.9346851,80.8105472 C20.5344115,81.2685078 20.091391,81.6837759 19.6095085,82.0563536 C19.127626,82.4289313 18.6146543,82.7549378 18.0705934,83.0266085 C17.5265325,83.2982792 16.9591542,83.519498 16.3723464,83.6825002 C15.7855377,83.8455035 15.1909571,83.954172 14.5847178,84.0007442 C13.9784785,84.0473164 13.3722392,84.0395538 12.7698859,83.969696 C12.1636466,83.8998372 11.5729519,83.7717639 10.9939159,83.5893558 C10.4187658,83.4069487 9.86304624,83.1663251 9.33064405,82.8752486 C8.79824185,82.584172 8.30081475,82.2426425 7.83447684,81.8545417 C7.36813894,81.4625582 6.94843383,81.031765 6.5637058,80.5621621 C6.18286268,80.0886785 5.85254024,79.5880274 5.5688516,79.0485657 C5.28516295,78.5129848 5.0597658,77.9541183 4.88488933,77.3719662 C4.71001187,76.789813 4.59342789,76.1960176 4.5351354,75.5944596 C4.47684391,74.9890209 4.47684391,74.3835821 4.5351354,73.7781434 C4.59342789,73.1727047 4.71001187,72.5789092 4.88488933,71.9967561 C5.0597658,71.414604 5.28904885,70.8518567 5.5727375,70.312395 C5.85642614,69.7729333 6.18674957,69.2645197 6.5675917,68.7910361 L57.2468635,8.37911618 C57.6510231,7.9211566 58.0940446,7.50588747 58.5759271,7.13330979 C59.0578096,6.7607321 59.5707813,6.43860839 60.1148422,6.16693666 C60.6589031,5.89138417 61.2223944,5.67404718 61.8092032,5.51104494 C62.396012,5.34416094 62.9944785,5.23937322 63.6007178,5.192801 C64.206957,5.14234802 64.8093104,5.15399133 65.4155497,5.22384914 C66.0179021,5.29370796 66.6085968,5.41790052 67.1876338,5.60418936 C67.7666697,5.78659744 68.3223893,6.02333926 68.8547915,6.31829659 C69.3833078,6.60937217 69.8846208,6.95090171 70.3470728,7.33900446 C70.8134107,7.72710523 71.2370008,8.15789842 71.6178439,8.63138306 C71.998686,9.10098594 72.3290084,9.60551872 72.6126981,10.1410986 C72.8963867,10.6805603 73.1256698,11.2394269 73.3005462,11.821579 C73.4715368,12.3998514 73.5881218,12.9936468 73.6464133,13.5990855 C73.7047058,14.2045243 73.7047058,14.809963 73.6464133,15.4154018 C73.5881218,16.0169587 73.4715368,16.6146359 73.2966603,17.1967881 C73.1217839,17.7789412 72.8963867,18.3416885 72.6126981,18.8811502 C72.3290084,19.4206119 71.9948001,19.9251437 71.613957,20.4025091 Z" id="Path" stroke="none" fill="#FFFFFF" fill-rule="nonzero" mask="url(#mask-10)"></path>
                                    </g>
                                </g>
                            </g>
                        </g>
                    </g>
                    <g transform="translate(23.876501, 45.652410)">
                        <mask id="mask-12" fill="white">
                            <use xlink:href="#path-11"></use>
                        </mask>
                        <g id="Path"></g>
                        <g mask="url(#mask-12)">
                            <g transform="translate(-28.143492, -24.361147)">
                                <mask id="mask-14" fill="white">
                                    <use xlink:href="#path-13"></use>
                                </mask>
                                <g id="Path" stroke="none" fill="none"></g>
                                <g id="Clipped" stroke="none" stroke-width="1" fill="none" fill-rule="evenodd" mask="url(#mask-14)">
                                    <g transform="translate(0.000000, -0.000000)">
                                        <mask id="mask-16" fill="white">
                                            <use xlink:href="#path-15"></use>
                                        </mask>
                                        <g id="Path" stroke="none" fill="none"></g>
                                        <path d="M95.5176611,40.4013923 L44.8383893,100.80943 C44.4342298,101.251867 43.9912093,101.64773 43.5132127,102.004785 C43.0313302,102.361838 42.5222444,102.668438 41.9859553,102.928467 C41.4457813,103.188495 40.8900617,103.394189 40.3110257,103.545549 C39.7358756,103.700789 39.1490668,103.797815 38.5544862,103.836625 C37.9599057,103.875435 37.3653241,103.859911 36.7746294,103.790052 C36.1839347,103.716313 35.6048987,103.58824 35.0414073,103.405832 C34.4740291,103.219543 33.9299682,102.9828 33.4092247,102.695606 C32.8884802,102.408411 32.4027118,102.074643 31.9441457,101.694303 C31.4894664,101.310082 31.0736482,100.890933 30.7005779,100.429091 C30.3236217,99.9672499 29.9971851,99.4743604 29.7173824,98.9504238 C29.4375797,98.4264862 29.2082966,97.879263 29.0334201,97.3087531 C28.8585437,96.7421241 28.7380728,96.1599719 28.6758944,95.5700573 C28.6098301,94.9762618 28.6020583,94.3824654 28.652578,93.78867 C28.7030977,93.1948745 28.808024,92.6127214 28.9673558,92.0383318 C29.1305746,91.4639402 29.3443121,90.9089554 29.6124561,90.3733745 C29.8767153,89.8416753 30.195379,89.3371436 30.5567906,88.8636589 L81.2360635,28.45174 C81.6207915,27.951088 82.0521543,27.4931284 82.5301509,27.0778593 C83.0081475,26.6625902 83.5211182,26.3016558 84.069066,25.9872936 C84.6208987,25.6768122 85.1960488,25.4245453 85.7984022,25.2304949 C86.3968696,25.0364446 87.0108807,24.9006087 87.6404374,24.8307499 C88.2661072,24.7608921 88.8956628,24.7531295 89.5213326,24.8074643 C90.1508893,24.8656788 90.7649004,24.9859906 91.3672538,25.1645179 C91.973493,25.346926 92.55253,25.5875486 93.1043627,25.8825059 C93.6600823,26.181344 94.1769399,26.5345168 94.6588224,26.9381427 C95.1445908,27.3417685 95.5798395,27.7880858 95.9723413,28.2809742 C96.3609553,28.7738637 96.6990505,29.3016821 96.9827391,29.8644294 C97.2664288,30.4232959 97.4918249,31.0093298 97.6589296,31.6186503 C97.8221474,32.2240881 97.9270737,32.8450509 97.9659356,33.4737762 C98.0047966,34.1025016 97.9814802,34.7273452 97.8959845,35.3521887 C97.8104897,35.9770323 97.6589296,36.5902336 97.449077,37.184029 C97.2392255,37.7778245 96.9710814,38.3483343 96.6446449,38.887796 C96.3220943,39.4311385 95.945138,39.9356702 95.5176611,40.4013923 Z" id="Path" stroke="none" fill="#FFFFFF" fill-rule="nonzero" mask="url(#mask-16)"></path>
                                    </g>
                                </g>
                            </g>
                        </g>
                    </g>
                    <g transform="translate(47.753002, 66.516760)">
                        <mask id="mask-18" fill="white">
                            <use xlink:href="#path-17"></use>
                        </mask>
                        <g id="Path"></g>
                        <g mask="url(#mask-18)">
                            <g transform="translate(-52.019993, -45.225497)">
                                <mask id="mask-20" fill="white">
                                    <use xlink:href="#path-19"></use>
                                </mask>
                                <g id="Path" stroke="none" fill="none"></g>
                                <g id="Clipped" stroke="none" stroke-width="1" fill="none" fill-rule="evenodd" mask="url(#mask-20)">
                                    <g transform="translate(0.000000, -0.000000)">
                                        <mask id="mask-22" fill="white">
                                            <use xlink:href="#path-21"></use>
                                        </mask>
                                        <g id="Path" stroke="none" fill="none"></g>
                                        <path d="M119.518519,60.4856585 L68.8392469,120.893697 C68.4389733,121.351657 67.9959528,121.766925 67.5140703,122.139503 C67.0321878,122.512081 66.5192161,122.838087 65.9751552,123.109758 C65.4310943,123.38531 64.863716,123.602647 64.2769072,123.76565 C63.6900995,123.928653 63.0955179,124.037321 62.4892796,124.083894 C61.8830393,124.134347 61.276801,124.122703 60.6744477,124.052845 C60.0682084,123.982987 59.4775137,123.858794 58.9023636,123.672505 C58.3233276,123.490098 57.767608,123.249475 57.2352058,122.958398 C56.7028026,122.667321 56.2053755,122.325792 55.7390376,121.937691 C55.2726997,121.545708 54.8529956,121.118796 54.4721535,120.645312 C54.0874245,120.171828 53.757102,119.671177 53.4734134,119.131715 C53.1936106,118.596134 52.9643276,118.037268 52.7894511,117.455116 C52.6145737,116.872962 52.4979897,116.279167 52.4396972,115.677609 C52.3814047,115.07217 52.3814047,114.466732 52.4396972,113.861293 C52.4979897,113.255854 52.6145737,112.662059 52.7894511,112.079905 C52.9643276,111.497753 53.1936106,110.935006 53.4772993,110.395544 C53.7609879,109.856083 54.0913104,109.347669 54.4721535,108.874185 L105.155311,48.4661473 C105.555585,48.004306 105.998605,47.5890369 106.480489,47.2164592 C106.96237,46.8438815 107.475343,46.5217578 108.019403,46.2500861 C108.563465,45.9745336 109.126956,45.7571966 109.713765,45.5941943 C110.300573,45.4273103 110.89904,45.3225226 111.50528,45.2759504 C112.111519,45.2254974 112.713871,45.2371407 113.320111,45.3069985 C113.922464,45.3768574 114.513159,45.5010499 115.092196,45.6873388 C115.671232,45.8697468 116.22695,46.1064887 116.759353,46.401446 C117.28787,46.6925216 117.789183,47.0340511 118.251635,47.4221539 C118.717973,47.8102546 119.141563,48.2410478 119.522405,48.7145325 C119.903248,49.1841353 120.237456,49.6886681 120.517259,50.2242481 C120.800949,50.7637097 121.030232,51.3225763 121.205108,51.9047284 C121.376099,52.4830008 121.492683,53.0767962 121.550975,53.6822349 C121.609268,54.2876737 121.609268,54.8931124 121.550975,55.4985512 C121.492683,56.1039899 121.376099,56.6977853 121.201221,57.2799375 C121.026345,57.8620906 120.800949,58.4248379 120.517259,58.9642996 C120.23357,59.5037613 119.899362,60.0082931 119.518519,60.4856585 Z" id="Path" stroke="none" fill="#FFFFFF" fill-rule="nonzero" mask="url(#mask-22)"></path>
                                    </g>
                                </g>
                            </g>
                        </g>
                    </g>
                </g>
            </g>
        </g>
    </g>
</svg>